<?xml version="1.0" encoding="UTF-8" standalone="no"?>
<svg
   xmlns:dc="http://purl.org/dc/elements/1.1/"
   xmlns:cc="http://creativecommons.org/ns#"
   xmlns:rdf="http://www.w3.org/1999/02/22-rdf-syntax-ns#"
   xmlns:svg="http://www.w3.org/2000/svg"
   xmlns="http://www.w3.org/2000/svg"
   xmlns:sodipodi="http://sodipodi.sourceforge.net/DTD/sodipodi-0.dtd"
   xmlns:inkscape="http://www.inkscape.org/namespaces/inkscape"
   inkscape:export-ydpi="107.37268"
   inkscape:export-xdpi="107.37268"
   inkscape:export-filename="/Users/manu/Development/pizi-chat/icon.png"
   sodipodi:docname="pizi-chat.svg"
   inkscape:version="1.0 (4035a4f, 2020-05-01)"
   id="svg1500"
   version="1.1"
   viewBox="0 0 42.333333 42.333335"
   height="160"
   width="160">
  <defs
     id="defs1494" />
  <sodipodi:namedview
     inkscape:window-maximized="0"
     inkscape:window-y="23"
     inkscape:window-x="0"
     inkscape:window-height="788"
     inkscape:window-width="1139"
     inkscape:showpageshadow="true"
     showborder="true"
     inkscape:pagecheckerboard="true"
     units="px"
     showgrid="false"
     inkscape:document-rotation="0"
     inkscape:current-layer="layer1"
     inkscape:document-units="px"
     inkscape:cy="255.58248"
     inkscape:cx="139.95369"
     inkscape:zoom="0.73061416"
     inkscape:pageshadow="2"
     inkscape:pageopacity="0"
     borderopacity="1.0"
     bordercolor="#666666"
     pagecolor="#eeeeee"
     id="base" />
  <metadata
     id="metadata1497">
    <rdf:RDF>
      <cc:Work
         rdf:about="">
        <dc:format>image/svg+xml</dc:format>
        <dc:type
           rdf:resource="http://purl.org/dc/dcmitype/StillImage" />
        <dc:title></dc:title>
      </cc:Work>
    </rdf:RDF>
  </metadata>
  <g
     id="layer1"
     inkscape:groupmode="layer"
     inkscape:label="Calque 1">
    <path
       style="stroke-width:2.67900004;fill:#cd853f;fill-opacity:1;stroke:#000000;stroke-opacity:1;stroke-miterlimit:4;stroke-dasharray:none"
       fill="currentColor"
       d="m 21.114487,4.0560836 c -11.100681,0 -20.0974137,7.3088644 -20.0974137,16.3291484 0,3.893874 1.6800181,7.458026 4.474815,10.260672 -0.9813191,3.956678 -4.2628501,7.481578 -4.3021021,7.520831 -0.1727129,0.180563 -0.21981603,0.44748 -0.117761,0.682996 0.1020558,0.235517 0.3218723,0.376827 0.5730903,0.376827 5.2049162,0 9.1066395,-2.496476 11.0378745,-4.035184 2.567131,0.965617 5.41688,1.523009 8.431494,1.523009 11.100681,0 20.097414,-7.308866 20.097414,-16.329151 0,-9.020284 -8.996733,-16.3291484 -20.097414,-16.3291484 z"
       id="path2244" />
    <path
       inkscape:transform-center-y="66.855367"
       inkscape:transform-center-x="62.147244"
       style="stroke-width:0.0455972;stroke-miterlimit:4;stroke-dasharray:none"
       fill="currentColor"
       d="m 20.787429,18.523388 c -3.615178,0 -8.740891,5.588705 -8.740891,9.116473 0,1.58884 1.220538,2.538045 3.265998,2.538045 2.223464,0 3.691661,-1.141778 5.474893,-1.141778 1.798712,0 3.271006,1.141778 5.474894,1.141778 2.045459,0 3.265997,-0.949205 3.265997,-2.538045 0,-3.527768 -5.125714,-9.116473 -8.740891,-9.116473 z m -6.704992,-0.574076 c -0.473464,-1.577458 -1.932101,-2.59905 -3.257803,-2.282193 -1.325701,0.316858 -2.0163233,1.852433 -1.5428577,3.429888 0.4734643,1.577457 1.9321007,2.599049 3.2578027,2.282192 1.325703,-0.316858 2.016324,-1.852432 1.542858,-3.429887 z m 3.856918,-0.94602 c 1.408559,-0.370576 2.113293,-2.273542 1.574272,-4.250258 -0.539021,-1.976715 -2.117846,-3.2782905 -3.526404,-2.9077128 -1.408558,0.3705788 -2.113292,2.2735438 -1.57427,4.2502588 0.539021,1.976716 2.118299,3.278745 3.526402,2.907712 z m 12.810414,-1.335716 c -1.325703,-0.316858 -2.783883,0.704733 -3.257804,2.282191 -0.473464,1.577456 0.217158,3.113029 1.542858,3.429887 1.325702,0.316857 2.783883,-0.704734 3.257804,-2.28219 0.473464,-1.577457 -0.217158,-3.113032 -1.542858,-3.429888 z m -7.114267,1.335716 c 1.408558,0.370578 2.987383,-0.930996 3.526403,-2.907712 0.539022,-1.976715 -0.165712,-3.879225 -1.57427,-4.2502588 -1.408559,-0.3710327 -2.987382,0.9309978 -3.526403,2.9077128 -0.539021,1.976716 0.165712,3.879682 1.57427,4.250258 z"
       id="path2333" />
  </g>
</svg>
